<svg xmlns="http://www.w3.org/2000/svg" width="9.797" height="16.8" viewBox="0 0 9.797 16.8">
  <g id="back" transform="translate(577.398 103.4)">
    <path id="Union_3" data-name="Union 3" d="M7.825,16.562,7.8,16.544l-.116-.1L.365,9.267a1.216,1.216,0,0,1-.121-1.6l.019-.023.1-.114L7.685.356a1.252,1.252,0,0,1,1.748,0,1.216,1.216,0,0,1,.12,1.6l-.019.023-.1.113L3,8.4l6.437,6.31a1.216,1.216,0,0,1,.12,1.6l-.019.023-.1.113a1.251,1.251,0,0,1-1.608.117Zm.734-.162h0Zm.676-.333-.081.092a.847.847,0,0,1-.574.241.847.847,0,0,0,.574-.241l.081-.092a.81.81,0,0,0,.165-.493A.81.81,0,0,1,9.234,16.067Zm-1.129.2-.025-.017ZM.644,8.982l7.321,7.177.094.08-.094-.08L.644,8.982A.813.813,0,0,1,.4,8.4.813.813,0,0,0,.644,8.982Zm8.59-7.269-.081.093L2.426,8.4,9.153,1.805l.081-.093A.81.81,0,0,0,9.4,1.219.81.81,0,0,1,9.234,1.713ZM8.146.506l0,0ZM8.156.5A.858.858,0,0,1,8.819.44.855.855,0,0,0,8.156.5Z" transform="translate(-577.398 -103.4)" fill="#0f0f0f"/>
  </g>
</svg>
