<svg xmlns="http://www.w3.org/2000/svg" width="41.726" height="41.754" viewBox="0 0 41.726 41.754">
  <g id="bank" transform="translate(-18.021 165.403)">
    <path id="Path_13533" data-name="Path 13533" d="M15.194,32.187V41.8a2.158,2.158,0,0,1,1.439,2.029v1.439a.719.719,0,0,1-.719.719H8.719A.719.719,0,0,1,8,45.266V43.827A2.158,2.158,0,0,1,9.439,41.8V32.187A2.158,2.158,0,0,1,8,30.158V28.719A.719.719,0,0,1,8.719,28h7.194a.719.719,0,0,1,.719.719v1.439A2.158,2.158,0,0,1,15.194,32.187Z" transform="translate(13.618 -175.39)" fill="#96a1c3"/>
    <path id="Path_13534" data-name="Path 13534" d="M16.315,32.187V41.8a2.158,2.158,0,0,1,1.439,2.029v1.439a.719.719,0,0,1-.719.719H12a.158.158,0,0,1,0-.058V44.374a2.345,2.345,0,0,1,1.439-2.158V31.806A2.345,2.345,0,0,1,12,29.611V28.058A.158.158,0,0,1,12,28h5.036a.719.719,0,0,1,.719.719v1.439a2.158,2.158,0,0,1-1.439,2.029Z" transform="translate(12.497 -175.39)" fill="#ccd3eb"/>
    <path id="Path_13535" data-name="Path 13535" d="M33.194,32.187V41.8a2.158,2.158,0,0,1,1.439,2.029v1.439a.719.719,0,0,1-.719.719H26.719A.719.719,0,0,1,26,45.266V43.827A2.158,2.158,0,0,1,27.439,41.8V32.187A2.158,2.158,0,0,1,26,30.158V28.719A.719.719,0,0,1,26.719,28h7.194a.719.719,0,0,1,.719.719v1.439A2.158,2.158,0,0,1,33.194,32.187Z" transform="translate(8.568 -175.39)" fill="#96a1c3"/>
    <path id="Path_13536" data-name="Path 13536" d="M34.315,32.187V41.8a2.158,2.158,0,0,1,1.439,2.029v1.439a.719.719,0,0,1-.719.719H30a.158.158,0,0,1,0-.058V44.374a2.345,2.345,0,0,1,1.439-2.158V31.806A2.345,2.345,0,0,1,30,29.611V28.058A.158.158,0,0,1,30,28h5.036a.719.719,0,0,1,.719.719v1.439a2.158,2.158,0,0,1-1.439,2.029Z" transform="translate(7.446 -175.39)" fill="#ccd3eb"/>
    <path id="Path_13537" data-name="Path 13537" d="M51.194,32.187V41.8a2.158,2.158,0,0,1,1.439,2.029v1.439a.719.719,0,0,1-.719.719H44.719A.719.719,0,0,1,44,45.266V43.827A2.158,2.158,0,0,1,45.439,41.8V32.187A2.158,2.158,0,0,1,44,30.158V28.719A.719.719,0,0,1,44.719,28h7.194a.719.719,0,0,1,.719.719v1.439A2.158,2.158,0,0,1,51.194,32.187Z" transform="translate(3.517 -175.39)" fill="#96a1c3"/>
    <path id="Path_13538" data-name="Path 13538" d="M40.813,25.172v9.611a2.158,2.158,0,0,1,1.439,2.029v1.439a.719.719,0,0,1-.719.719H36.5a.158.158,0,0,1,0-.058V37.359A2.345,2.345,0,0,1,37.936,35.2V24.791A2.345,2.345,0,0,1,36.5,22.6V21.043a.158.158,0,0,1,0-.058h5.036a.719.719,0,0,1,.719.719v1.439A2.158,2.158,0,0,1,40.813,25.172Zm2.158-8.5a.719.719,0,0,1-.719.719H7.72a.717.717,0,0,1-.453-1.273l.194-.165,6.87-5.619,7.647-6.259a4.525,4.525,0,0,1,1.036-.64,4.007,4.007,0,0,1,.763-.273,4.691,4.691,0,0,1,2.417,0,3.209,3.209,0,0,1,.525.173l.237.1a4.676,4.676,0,0,1,.82.475l.216.165,6.475,5.3,2.216,1.813.532.446,2.223,1.82L41.6,15.216l.885.719.194.165A.719.719,0,0,1,42.972,16.669Z" transform="translate(13.898 -168.375)" fill="#ccd3eb"/>
    <path id="Path_13539" data-name="Path 13539" d="M44.151,15.359H16.72a.717.717,0,0,1-.453-1.273l.194-.165L23.331,8.3,29.245,3.46l.237.1a4.676,4.676,0,0,1,.82.475l.216.165,6.475,5.3,2.216,1.813.532.446,2.223,1.82Z" transform="translate(11.373 -168.504)" fill="#f5f7ff"/>
    <rect id="Rectangle_2265" data-name="Rectangle 2265" width="40.287" height="6.475" rx="3" transform="translate(18.74 -152.426)" fill="#ccd3eb"/>
    <path id="Path_13540" data-name="Path 13540" d="M31.343,10.6h-.719a.36.36,0,1,1,0-.719h1.885a.719.719,0,1,0,0-1.439h-.719V7.719a.719.719,0,0,0-1.439,0v.719a1.8,1.8,0,0,0,.273,3.6h.719a.36.36,0,0,1,0,.719H29.63a.719.719,0,1,0,0,1.439h.719v.719a.719.719,0,0,0,1.439,0v-.784a1.791,1.791,0,0,0-.446-3.532Z" transform="translate(7.815 -169.498)" fill="#f5f7ff"/>
    <path id="Path_13541" data-name="Path 13541" d="M41.129,51H6.6A3.6,3.6,0,0,0,3,54.6v2.878a.719.719,0,0,0,.719.719H44.007a.719.719,0,0,0,.719-.719V54.6A3.6,3.6,0,0,0,41.129,51Z" transform="translate(15.021 -181.843)" fill="#96a1c3"/>
    <path id="Path_13542" data-name="Path 13542" d="M48.486,15.8a.719.719,0,0,1-.554.266.676.676,0,0,1-.453-.165l-.561-.46a.719.719,0,0,1,.906-1.108l.532.446a.719.719,0,0,1,.129,1.022Z" transform="translate(2.757 -171.522)" fill="#033c59"/>
    <path id="Path_13543" data-name="Path 13543" d="M30.623,9.878h1.885a.719.719,0,1,0,0-1.439h-.719V7.719a.719.719,0,0,0-1.439,0v.719a1.8,1.8,0,0,0,.273,3.6h.719a.36.36,0,0,1,0,.719H29.63a.719.719,0,1,0,0,1.439h.719v.719a.719.719,0,0,0,1.439,0v-.784a1.791,1.791,0,0,0-.446-3.532h-.719a.36.36,0,1,1,0-.719Z" transform="translate(7.815 -169.498)" fill="#0074ff"/>
    <path id="Path_13544" data-name="Path 13544" d="M41.129,37.521V36.8a2.158,2.158,0,0,0-1.439-2.029V25.162a2.158,2.158,0,0,0,1.439-2.029v-.719h.719a2.158,2.158,0,0,0,2.158-2.158V18.1a2.158,2.158,0,0,0-2.158-2.158h-.46l-3.043-2.482a.719.719,0,1,0-.906,1.108l1.676,1.374H8.611L21.762,5.148a3.432,3.432,0,0,1,3.719-.324,3.525,3.525,0,0,1,.482.324l6.475,5.295a.719.719,0,0,0,.906-1.108L26.87,4.04a2.554,2.554,0,0,0-.223-.165,4.036,4.036,0,0,0-.813-.482,4.734,4.734,0,0,0-4.978.647L13.209,10.32l-6.87,5.619h-.46A2.158,2.158,0,0,0,3.719,18.1v2.158a2.158,2.158,0,0,0,2.158,2.158H6.6v.719a2.158,2.158,0,0,0,1.439,2.029v9.611A2.158,2.158,0,0,0,6.6,36.8v.719a3.6,3.6,0,0,0-3.6,3.6V44a.719.719,0,0,0,.719.719H44.007A.719.719,0,0,0,44.726,44V41.119A3.6,3.6,0,0,0,41.129,37.521ZM39.69,23.133a.719.719,0,0,1-.719.719H34.654a.719.719,0,0,1-.719-.719v-.719H39.69Zm-12.95,11.64V25.162a2.158,2.158,0,0,0,1.439-2.029v-.719H32.5v.719a2.158,2.158,0,0,0,1.439,2.029v9.611A2.158,2.158,0,0,0,32.5,36.8v.719H28.18V36.8a2.158,2.158,0,0,0-1.439-2.029Zm-12.95,0V25.162a2.158,2.158,0,0,0,1.439-2.029v-.719h4.317v.719a2.158,2.158,0,0,0,1.439,2.029v9.611A2.158,2.158,0,0,0,19.547,36.8v.719H15.23V36.8A2.158,2.158,0,0,0,13.791,34.773ZM8.755,23.853a.719.719,0,0,1-.719-.719v-.719h5.755v.719a.719.719,0,0,1-.719.719Zm3.6,1.439v9.352H9.475V25.291ZM20.985,36.8a.719.719,0,0,1,.719-.719h4.317a.719.719,0,0,1,.719.719v.719H20.985Zm1.439-2.158V25.291H25.3v9.352Zm3.6-10.791H21.7a.719.719,0,0,1-.719-.719v-.719h5.755v.719A.719.719,0,0,1,26.021,23.853ZM33.935,36.8a.719.719,0,0,1,.719-.719h4.317a.719.719,0,0,1,.719.719v.719H33.935Zm1.439-2.158V25.291h2.878v9.352ZM5.878,20.975a.719.719,0,0,1-.719-.719V18.1a.719.719,0,0,1,.719-.719H41.849a.719.719,0,0,1,.719.719v2.158a.719.719,0,0,1-.719.719ZM8.036,36.8a.719.719,0,0,1,.719-.719h4.317a.719.719,0,0,1,.719.719v.719H8.036Zm35.252,6.475H4.439V41.119A2.158,2.158,0,0,1,6.6,38.96H41.129a2.158,2.158,0,0,1,2.158,2.158Z" transform="translate(15.021 -168.365)" fill="#033c59"/>
  </g>
</svg>
