<svg xmlns="http://www.w3.org/2000/svg" xmlns:xlink="http://www.w3.org/1999/xlink" width="31.41" height="31.41" viewBox="0 0 31.41 31.41">
  <defs>
    <linearGradient id="linear-gradient" x1="0.5" x2="0.5" y2="1" gradientUnits="objectBoundingBox">
      <stop offset="0" stop-color="#f8df00"/>
      <stop offset="0.14" stop-color="#fce800"/>
      <stop offset="0.303" stop-color="#ffef00"/>
      <stop offset="1" stop-color="#f3a700"/>
    </linearGradient>
    <radialGradient id="radial-gradient" cx="0.495" cy="-0.071" r="0.4" gradientUnits="objectBoundingBox">
      <stop offset="0" stop-color="#fff77d"/>
      <stop offset="1"/>
    </radialGradient>
    <linearGradient id="linear-gradient-2" x1="0.5" y1="1.832" x2="0.5" y2="0.379" gradientUnits="objectBoundingBox">
      <stop offset="0" stop-color="#fffab0"/>
      <stop offset="1"/>
    </linearGradient>
    <linearGradient id="linear-gradient-3" x1="0.5" y1="1" x2="0.5" y2="-0.229" gradientUnits="objectBoundingBox">
      <stop offset="0" stop-color="#ffe100"/>
      <stop offset="0.168" stop-color="#fcd600"/>
      <stop offset="0.698" stop-color="#f7b900"/>
      <stop offset="1" stop-color="#f5ae00"/>
    </linearGradient>
    <radialGradient id="radial-gradient-2" cx="0.505" cy="0.069" r="1.005" gradientUnits="objectBoundingBox">
      <stop offset="0.309" stop-color="#ffdf00"/>
      <stop offset="1" stop-color="#f3a700"/>
    </radialGradient>
    <linearGradient id="linear-gradient-4" x1="0.5" y1="1" x2="0.5" gradientUnits="objectBoundingBox">
      <stop offset="0" stop-color="#ee9b00"/>
      <stop offset="0.612" stop-color="#f2b500"/>
      <stop offset="1" stop-color="#f5c000"/>
    </linearGradient>
    <linearGradient id="linear-gradient-5" x1="0.5" x2="0.5" y2="1.746" gradientUnits="objectBoundingBox">
      <stop offset="0" stop-color="#ffef00"/>
      <stop offset="0.727" stop-color="#fac800"/>
      <stop offset="1" stop-color="#f7cf00"/>
    </linearGradient>
    <radialGradient id="radial-gradient-3" cx="0.491" cy="-0.206" r="0.883" gradientUnits="objectBoundingBox">
      <stop offset="0" stop-color="#fff66e"/>
      <stop offset="1"/>
    </radialGradient>
    <linearGradient id="linear-gradient-6" y1="1.808" y2="0.673" xlink:href="#linear-gradient-2"/>
  </defs>
  <g id="coin" transform="translate(0)">
    <ellipse id="Ellipse_2077" data-name="Ellipse 2077" cx="15.45" cy="15.45" rx="15.45" ry="15.45" transform="translate(0.254 0.254)" fill="url(#linear-gradient)"/>
    <path id="Path_61336" data-name="Path 61336" d="M218.955,201.515a15.705,15.705,0,0,1-15.7-15.471c0,.08,0,.159,0,.237a15.7,15.7,0,0,0,31.41,0v-.236a15.7,15.7,0,0,1-15.7,15.469Z" transform="translate(-203.25 -170.577)" fill="#fdf356" opacity="0.3"/>
    <path id="Path_61337" data-name="Path 61337" d="M218.955,91.34a15.705,15.705,0,0,1,15.7,15.413c0-.1,0-.2,0-.3a15.7,15.7,0,1,0-31.41,0v.295A15.7,15.7,0,0,1,218.955,91.34Z" transform="translate(-203.25 -90.75)" fill="#fdf356"/>
    <ellipse id="Ellipse_2078" data-name="Ellipse 2078" cx="15.631" cy="15.631" rx="15.631" ry="15.631" transform="translate(0.073 0.073)" fill="url(#radial-gradient)" style="mix-blend-mode: screen;isolation: isolate"/>
    <path id="Path_61338" data-name="Path 61338" d="M219.332,91.113A15.637,15.637,0,0,0,203.7,106.328c1.729,1.024,4.448.2,6.226-.685a10.48,10.48,0,0,1,5.06-.349c4.115.349,8.112,2.117,12.227,1.057.824-.236,2-1.293,2.822-.588a4.6,4.6,0,0,0,4.933.578,15.637,15.637,0,0,0-15.637-15.228Z" transform="translate(-203.628 -91.054)" opacity="0.7" fill="url(#linear-gradient-2)" style="mix-blend-mode: screen;isolation: isolate"/>
    <ellipse id="Ellipse_2079" data-name="Ellipse 2079" cx="12.162" cy="12.162" rx="12.162" ry="12.162" transform="translate(3.542 3.542)" fill="url(#linear-gradient-3)"/>
    <ellipse id="Ellipse_2080" data-name="Ellipse 2080" cx="11.573" cy="11.573" rx="11.573" ry="11.573" transform="translate(4.132 4.132)" fill="#ee9b00"/>
    <ellipse id="Ellipse_2081" data-name="Ellipse 2081" cx="11.1" cy="11.1" rx="11.1" ry="11.1" transform="translate(4.605 4.605)" fill="url(#radial-gradient-2)"/>
    <path id="Path_61339" data-name="Path 61339" d="M242.718,196.25a10.9,10.9,0,0,1-11.1-10.568q0,.147,0,.295a11.1,11.1,0,1,0,22.2,0c0-.1,0-.2,0-.295A10.9,10.9,0,0,1,242.718,196.25Z" transform="translate(-227.014 -170.27)" fill="#fdf356" opacity="0.25"/>
    <path id="Path_61340" data-name="Path 61340" d="M270.871,152.052h0a.977.977,0,0,0-.794-.67l-3.638-.524-1.626-3.3a.982.982,0,0,0-1.764,0l-1.626,3.3-3.638.524a.984.984,0,0,0-.545,1.677l2.633,2.565-.621,3.623a.977.977,0,0,0,.391.961.993.993,0,0,0,1.035.075l3.254-1.71,3.254,1.71a.984.984,0,0,0,1.427-1.036l-.621-3.623,2.632-2.565A.977.977,0,0,0,270.871,152.052Z" transform="translate(-248.225 -137.884)" fill="#fdf356" opacity="0.1"/>
    <path id="Path_61341" data-name="Path 61341" d="M271.867,152.621a.743.743,0,0,0-.6-.508l-3.76-.546-1.682-3.408h0a.747.747,0,0,0-1.34,0l-1.682,3.408-3.76.546a.747.747,0,0,0-.414,1.274l2.485,2.534-.642,3.746a.815.815,0,0,0,.295.775,1.106,1.106,0,0,0,1.024.131l3.364-1.769,3.371,1.778a.965.965,0,0,0,.907-.031,1.087,1.087,0,0,0,.414-.872l-.642-3.746,2.485-2.534a.743.743,0,0,0,.182-.776Z" transform="translate(-249.446 -138.49)" opacity="0.6" fill="url(#linear-gradient-4)"/>
    <path id="Path_61342" data-name="Path 61342" d="M271.867,148.257a.742.742,0,0,0-.6-.508l-3.76-.546-1.682-3.408h0a.747.747,0,0,0-1.34,0L262.8,147.2l-3.76.546a.747.747,0,0,0-.414,1.274l2.722,2.652-.642,3.746a.747.747,0,0,0,1.084.787l3.364-1.768,3.364,1.768a.747.747,0,0,0,1.084-.787l-.642-3.746,2.722-2.652a.742.742,0,0,0,.187-.766Z" transform="translate(-249.446 -134.835)" fill="#ee9b00" opacity="0.15"/>
    <path id="Path_61343" data-name="Path 61343" d="M266.579,146.246l1.722,3.49,3.853.56a.571.571,0,0,1,.316.972l-2.792,2.717.658,3.839a.571.571,0,0,1-.827.6l-3.446-1.811-3.446,1.811a.571.571,0,0,1-.827-.6l.658-3.839-2.792-2.717a.571.571,0,0,1,.316-.972l3.853-.56,1.722-3.49a.571.571,0,0,1,1.033,0Z" transform="translate(-250.363 -136.971)" fill="url(#linear-gradient-5)"/>
    <g id="Group_34405" data-name="Group 34405" transform="translate(9.129 8.957)">
      <path id="Path_61344" data-name="Path 61344" d="M274.237,197.441l-.605,3.534a.567.567,0,0,0,.016.262l.633-3.745Z" transform="translate(-271.328 -189.081)" fill="#fdf356" opacity="0.3"/>
      <path id="Path_61345" data-name="Path 61345" d="M259.983,150.646l4.089-.56,1.724-3.49c.209-.424.349-.424.55,0l1.722,3.49,4.088.56a.564.564,0,0,1,.461.387.571.571,0,0,0-.461-.742l-3.853-.56-1.722-3.49a.571.571,0,0,0-1.023,0l-1.722,3.49-3.853.56a.571.571,0,0,0-.459.742.563.563,0,0,1,.459-.387Z" transform="translate(-259.496 -145.924)" fill="#fdf356"/>
      <path id="Path_61346" data-name="Path 61346" d="M322.322,197.441l-.052.051.642,3.745a.565.565,0,0,0,.016-.262Z" transform="translate(-312.081 -189.081)" fill="#fdf356" opacity="0.3"/>
    </g>
    <path id="Path_61347" data-name="Path 61347" d="M266.579,146.246l1.722,3.49,3.853.56a.571.571,0,0,1,.316.972l-2.792,2.717.658,3.839a.571.571,0,0,1-.827.6l-3.446-1.811-3.446,1.811a.571.571,0,0,1-.827-.6l.658-3.839-2.792-2.717a.571.571,0,0,1,.316-.972l3.853-.56,1.722-3.49a.571.571,0,0,1,1.033,0Z" transform="translate(-250.363 -136.971)" fill="url(#radial-gradient-3)" style="mix-blend-mode: screen;isolation: isolate"/>
    <path id="Path_61348" data-name="Path 61348" d="M272.486,150.292l-3.853-.56-1.722-3.49a.571.571,0,0,0-1.023,0l-1.722,3.49-3.853.56a.56.56,0,0,0-.424.3,5.319,5.319,0,0,0,1.473,1.279c2.443,1.377,8.542,1.141,10.234-.236a4.426,4.426,0,0,0,1.237-1.159A.559.559,0,0,0,272.486,150.292Z" transform="translate(-250.693 -136.967)" fill="url(#linear-gradient-6)" style="mix-blend-mode: screen;isolation: isolate"/>
  </g>
</svg>
