<svg xmlns="http://www.w3.org/2000/svg" width="25" height="17.699" viewBox="0 0 25 17.699">
  <g id="event_type" transform="translate(-21.104 -516.791)">
    <g id="Icon_ionic-ios-repeat" data-name="Icon ionic-ios-repeat" transform="translate(21.104 516.791)">
      <path id="Path_2648" data-name="Path 2648" d="M22.247,10.879,20.06,8.7a.912.912,0,0,0-.885-.234.778.778,0,0,0-.228.1.908.908,0,0,0-.443.853.955.955,0,0,0,.28.592l1.042,1.035H9.578A5.09,5.09,0,0,0,4.5,16.12v1.042a.914.914,0,0,0,.911.911h0a.914.914,0,0,0,.911-.911V16.12a3.268,3.268,0,0,1,3.255-3.255H19.7L18.653,13.9a.924.924,0,0,0-.28.566.918.918,0,0,0,.911,1,.9.9,0,0,0,.645-.267l2.318-2.3a1.408,1.408,0,0,0,.423-1.009A1.452,1.452,0,0,0,22.247,10.879Z" transform="translate(-4.5 -8.439)" fill="#681f84"/>
      <path id="Path_2649" data-name="Path 2649" d="M29.135,17.156h0a.914.914,0,0,0-.911.911v1.042a3.268,3.268,0,0,1-3.255,3.255H14.851l1.042-1.035a.923.923,0,0,0,.28-.573.918.918,0,0,0-.911-1,.9.9,0,0,0-.645.267l-2.318,2.3a1.415,1.415,0,0,0,0,2.018l2.187,2.174a.912.912,0,0,0,.885.234.778.778,0,0,0,.228-.1.908.908,0,0,0,.443-.853.955.955,0,0,0-.28-.592l-1.042-1.035H24.968A5.085,5.085,0,0,0,30.046,19.1V18.055A.911.911,0,0,0,29.135,17.156Z" transform="translate(-5.046 -9.085)" fill="#681f84"/>
    </g>
  </g>
</svg>
