<svg xmlns="http://www.w3.org/2000/svg" width="21.181" height="20.5" viewBox="0 0 21.181 20.5">
  <path id="friend" d="M20.7,6.8A10.084,10.084,0,0,0,16.8,2a10.582,10.582,0,0,0-6-1.8h0A11.768,11.768,0,0,0,5.6,1.5,11.234,11.234,0,0,0,1.7,5.1a9.757,9.757,0,0,0-1.5,5,10.1,10.1,0,0,0,1.2,5.1l.2.4c0,.1.1.2,0,.2A18.66,18.66,0,0,0,.9,18h0v.2h0a1.342,1.342,0,0,0,1.4,1.5h.1c.8-.2,1.5-.4,2.3-.6H5l.7.4h0a10.442,10.442,0,0,0,4.9,1.2,10.9,10.9,0,0,0,7-2.5A10.346,10.346,0,0,0,20.9,13,8.819,8.819,0,0,0,20.7,6.8ZM6.2,11.9a1.561,1.561,0,0,1-1.6-1.5A1.561,1.561,0,0,1,6.2,8.9a1.561,1.561,0,0,1,1.6,1.5A1.561,1.561,0,0,1,6.2,11.9Zm4.6,0a1.561,1.561,0,0,1-1.6-1.5,1.6,1.6,0,0,1,3.2,0A1.561,1.561,0,0,1,10.8,11.9Zm4.6,0a1.561,1.561,0,0,1-1.6-1.5,1.6,1.6,0,0,1,3.2,0A1.561,1.561,0,0,1,15.4,11.9Z" transform="translate(-0.187 -0.2)" fill="#681f84"/>
</svg>
