<svg xmlns="http://www.w3.org/2000/svg" width="29" height="19" viewBox="0 0 29 19">
  <path id="group_line" d="M20.25,15a3.75,3.75,0,1,0-3.75-3.75A3.734,3.734,0,0,0,20.25,15Zm-10,0A3.75,3.75,0,1,0,6.5,11.25,3.734,3.734,0,0,0,10.25,15Zm0,2.5c-2.912,0-8.75,1.462-8.75,4.375V25H19V21.875C19,18.962,13.162,17.5,10.25,17.5Zm10,0c-.362,0-.775.025-1.212.063A5.275,5.275,0,0,1,21.5,21.875V25H29V21.875C29,18.962,23.162,17.5,20.25,17.5Z" transform="translate(-0.75 -6.75)" fill="none" stroke="#8d8d8f" stroke-width="1.5"/>
</svg>
