<svg xmlns="http://www.w3.org/2000/svg" width="31.823" height="37.548" viewBox="0 0 31.823 37.548">
  <g id="paypal" transform="translate(0)">
    <path id="Path_13547" data-name="Path 13547" d="M8.782,36.025l.651-4.133-1.45-.034H1.061l4.81-30.5a.393.393,0,0,1,.391-.333H17.933c3.875,0,6.548.806,7.945,2.4A5.467,5.467,0,0,1,27.15,5.807a8.611,8.611,0,0,1,.009,3.29l-.015.1v.841l.654.371a4.591,4.591,0,0,1,1.325,1.01A4.7,4.7,0,0,1,30.2,13.826a10.2,10.2,0,0,1-.153,3.5,12.321,12.321,0,0,1-1.433,3.96,8.146,8.146,0,0,1-2.271,2.488,9.212,9.212,0,0,1-3.058,1.38,15.252,15.252,0,0,1-3.822.442h-.908a2.732,2.732,0,0,0-2.7,2.306l-.068.372-1.15,7.285-.052.268a.23.23,0,0,1-.072.156.193.193,0,0,1-.119.044Z" transform="translate(0.259 0.25)" fill="#253b80"/>
    <path id="Path_13548" data-name="Path 13548" d="M27.166,7.667q-.052.334-.119.684c-1.539,7.9-6.8,10.632-13.53,10.632H10.092a1.663,1.663,0,0,0-1.644,1.408L6.7,31.511l-.5,3.152a.876.876,0,0,0,.865,1.013h6.073a1.462,1.462,0,0,0,1.443-1.232l.06-.309,1.143-7.256.073-.4A1.46,1.46,0,0,1,17.3,25.246h.908c5.884,0,10.49-2.389,11.837-9.3.562-2.888.271-5.3-1.217-7a5.807,5.807,0,0,0-1.662-1.282Z" transform="translate(1.511 1.873)" fill="#179bd7"/>
    <path id="Path_13549" data-name="Path 13549" d="M25.112,7.26a12.14,12.14,0,0,0-1.5-.332,19.017,19.017,0,0,0-3.019-.22H11.449a1.458,1.458,0,0,0-1.442,1.234L8.061,20.267l-.056.36a1.662,1.662,0,0,1,1.644-1.408h3.424c6.725,0,11.991-2.731,13.53-10.632.046-.234.085-.462.119-.684a8.2,8.2,0,0,0-1.265-.534q-.171-.057-.345-.108Z" transform="translate(1.955 1.638)" fill="#222d65"/>
    <path id="Path_13550" data-name="Path 13550" d="M11.962,9.579A1.455,1.455,0,0,1,13.4,8.346h9.148a19.017,19.017,0,0,1,3.019.22,12.14,12.14,0,0,1,1.843.439,8.328,8.328,0,0,1,1.265.534c.458-2.92,0-4.909-1.583-6.709C25.355.849,22.214,0,18.193,0H6.522A1.668,1.668,0,0,0,4.874,1.41L.012,32.224A1,1,0,0,0,1,33.383H8.207l1.809-11.478L11.962,9.579Z" transform="translate(0 0)" fill="#253b80"/>
  </g>
</svg>
