<svg xmlns="http://www.w3.org/2000/svg" width="14.946" height="14.946" viewBox="0 0 14.946 14.946">
  <g id="send" transform="translate(-2.35 -2.35)">
    <path id="Path_13621" data-name="Path 13621" d="M16.5,11.155a.65.65,0,0,1-.46-1.11L23.545,2.54a.65.65,0,0,1,.919.919L16.96,10.965A.648.648,0,0,1,16.5,11.155Z" transform="translate(-7.36 0)"/>
    <path id="Path_13622" data-name="Path 13622" d="M16.645,2.35a.65.65,0,0,1,.614.865L12.483,16.86a.65.65,0,0,1-1.207.049L8.648,11,2.736,8.37a.65.65,0,0,1,.049-1.207L16.431,2.386A.649.649,0,0,1,16.645,2.35ZM11.8,14.883,15.586,4.059,4.762,7.848,9.4,9.911a.65.65,0,0,1,.33.33Z" transform="translate(0 0)"/>
  </g>
</svg>
